<?xml version="1.0" encoding="UTF-8"?>
<svg width="1200pt" height="1200pt" version="1.1" viewBox="0 0 1200 1200" xmlns="http://www.w3.org/2000/svg">
 <path d="m1162.5 543.75h-131.25c8.625 0 16.145-5.8867 18.207-14.289 2.0625-8.3984-1.875-17.102-9.543-21.094l-263.87-137.66c7.3086-10.254 11.453-21.371 11.453-33.203v-87.789l37.5-14.062v32.062c-11.156 6.5078-18.75 18.469-18.75 32.289s7.5938 25.781 18.75 32.289v42.711h37.5v-42.711c11.156-6.5078 18.75-18.469 18.75-32.289s-7.5938-25.781-18.75-32.289v-46.125l44.082-16.539c7.3125-2.7344 12.168-9.7266 12.168-17.547s-4.8555-14.812-12.168-17.57l-300-112.5c-4.2578-1.5938-8.9258-1.5938-13.164 0l-300 112.5c-7.3125 2.7578-12.168 9.75-12.168 17.57s4.8555 14.812 12.168 17.57l119.08 44.641v87.789c0 11.832 4.1445 22.949 11.457 33.207l-263.87 137.66c-7.668 3.9922-11.605 12.711-9.543 21.094 2.0625 8.3828 9.582 14.289 18.207 14.289h-131.25c-10.352 0-18.75 8.3984-18.75 18.75v75c0 10.352 8.3984 18.75 18.75 18.75h37.5v375c-10.352 0-18.75 8.3984-18.75 18.75v75c0 10.352 8.3984 18.75 18.75 18.75h1050c10.352 0 18.75-8.3984 18.75-18.75v-75c0-10.352-8.3984-18.75-18.75-18.75v-375h37.5c10.352 0 18.75-8.3984 18.75-18.75v-75c0-10.352-8.3984-18.75-18.75-18.75zm-243.75 487.5v-412.5h37.5v412.5zm-356.25-112.5h75v112.5h-75zm0-37.5c0-20.68 16.82-37.5 37.5-37.5s37.5 16.82 37.5 37.5zm37.5-75c-41.363 0-75 33.637-75 75v150h-37.5v-412.5h225v412.5h-37.5v-150c0-41.363-33.637-75-75-75zm0-375c60.449 0 112.48-12.898 146.29-33.77l208.48 108.77h-709.54l208.5-108.77c33.789 20.871 85.82 33.77 146.27 33.77zm-375 150v-37.5h750v37.5zm18.75 37.5h37.5v412.5h-37.5zm75 0h56.25v412.5h-56.25zm93.75 0h37.5v412.5h-37.5zm337.5 0h37.5v412.5h-37.5zm75 0h56.25v412.5h-56.25zm-225-523.73 246.6 92.477-246.6 92.477-246.6-92.477zm-6.582 222.55c2.1211 0.78516 4.3516 1.1797 6.582 1.1797s4.4609-0.39453 6.582-1.1797l143.42-53.797v73.727c0 22.93-58.445 56.25-150 56.25s-150-33.32-150-56.25v-73.727zm-537.17 263.68h131.25v18.75c0 10.332 8.3828 18.711 18.711 18.75h-149.96zm56.25 75h93.75v375h-93.75zm993.75 450h-1012.5v-37.5h1012.5zm-18.75-75h-93.75v-375h93.75zm56.25-412.5h-149.96c10.328-0.039062 18.711-8.418 18.711-18.75v-18.75h131.25z" fill="#0a2961"/>
</svg>
